G04 Layer_Color=8388736*
%FSAX24Y24*%
%MOIN*%
G70*
G01*
G75*
%ADD19C,0.0100*%
%ADD21R,0.4059X0.6059*%
%ADD22C,0.0059*%
%ADD23C,0.0559*%
%ADD24R,0.0559X0.0559*%
%ADD25R,0.0531X0.0531*%
%ADD26C,0.0531*%
%ADD27O,0.1043X0.0531*%
%ADD28R,0.1043X0.0531*%
D19*
X014350Y048000D02*
X014350Y047900D01*
X014250Y047900D01*
X014450Y047900D01*
X014350Y047900D01*
X014350Y047600D01*
X014450Y047500D01*
X014750Y047900D02*
X014750Y047600D01*
X014850Y047500D01*
X015150Y047500D01*
X015150Y047400D01*
X015050Y047300D01*
X014950Y047300D01*
X015150Y047500D02*
X015150Y047900D01*
X015350Y047500D02*
X015550Y047500D01*
X015450Y047500D01*
X015450Y048100D01*
X015350Y048100D01*
X016149Y047500D02*
X015949Y047500D01*
X015849Y047600D01*
X015849Y047800D01*
X015949Y047900D01*
X016149Y047900D01*
X016249Y047800D01*
X016249Y047700D01*
X015849Y047700D01*
X016449Y047900D02*
X016449Y047500D01*
X016449Y047700D01*
X016549Y047800D01*
X016649Y047900D01*
X016749Y047900D01*
X017049Y047500D02*
X017049Y047600D01*
X017149Y047600D01*
X017149Y047500D01*
X017049Y047500D01*
X017549Y047900D02*
X017749Y047500D01*
X017949Y047900D01*
X018549Y047900D02*
X018249Y047900D01*
X018149Y047800D01*
X018149Y047600D01*
X018249Y047500D01*
X018549Y047500D01*
D21*
X051250Y038450D02*
D03*
X051250Y032000D02*
D03*
X046250Y032000D02*
D03*
X041250Y032000D02*
D03*
X031250Y032000D02*
D03*
X036250Y032000D02*
D03*
X036250Y038500D02*
D03*
X031250Y038500D02*
D03*
X041250Y038450D02*
D03*
X046250Y038500D02*
D03*
D22*
X053250Y022500D02*
D03*
X013250Y022500D02*
D03*
X053250Y048250D02*
D03*
X013250Y048250D02*
D03*
D23*
X014000Y029450D02*
D03*
X014000Y030500D02*
D03*
X022750Y029300D02*
D03*
X022750Y028250D02*
D03*
X052100Y024500D02*
D03*
X050250Y024500D02*
D03*
X020000Y024500D02*
D03*
X018150Y024500D02*
D03*
X050400Y046000D02*
D03*
X052250Y046000D02*
D03*
X051250Y043500D02*
D03*
X052250Y043500D02*
D03*
X026500Y032000D02*
D03*
X026500Y028900D02*
D03*
X025250Y033100D02*
D03*
X025250Y030000D02*
D03*
X024000Y034750D02*
D03*
X024000Y037850D02*
D03*
X024000Y038900D02*
D03*
X024000Y042000D02*
D03*
X025250Y042400D02*
D03*
X025250Y045500D02*
D03*
X024000Y033850D02*
D03*
X024000Y030750D02*
D03*
X025250Y034150D02*
D03*
X025250Y037250D02*
D03*
X025250Y038400D02*
D03*
X025250Y041500D02*
D03*
X026500Y041900D02*
D03*
X026500Y045000D02*
D03*
X024000Y042900D02*
D03*
X024000Y046000D02*
D03*
X015750Y028350D02*
D03*
X015750Y025250D02*
D03*
X030400Y046000D02*
D03*
X032250Y046000D02*
D03*
X014250Y028550D02*
D03*
X014250Y025250D02*
D03*
X025250Y027000D02*
D03*
X021950Y027000D02*
D03*
X050250Y026950D02*
D03*
X051250Y026950D02*
D03*
X045250Y026950D02*
D03*
X046250Y026950D02*
D03*
X040250Y026950D02*
D03*
X041250Y026950D02*
D03*
X030250Y026950D02*
D03*
X031250Y026950D02*
D03*
X035250Y026950D02*
D03*
X036250Y026950D02*
D03*
X037250Y043550D02*
D03*
X036250Y043550D02*
D03*
X032250Y043550D02*
D03*
X031250Y043550D02*
D03*
X042250Y043500D02*
D03*
X041250Y043500D02*
D03*
X047250Y043550D02*
D03*
X046250Y043550D02*
D03*
X047100Y024500D02*
D03*
X045250Y024500D02*
D03*
X042100Y024500D02*
D03*
X040250Y024500D02*
D03*
X032100Y024500D02*
D03*
X030250Y024500D02*
D03*
X037100Y024500D02*
D03*
X035250Y024500D02*
D03*
X035400Y046000D02*
D03*
X037250Y046000D02*
D03*
X040400Y046000D02*
D03*
X042250Y046000D02*
D03*
X045400Y046000D02*
D03*
X047250Y046000D02*
D03*
D24*
X050250Y043500D02*
D03*
X052250Y026950D02*
D03*
X047250Y026950D02*
D03*
X042250Y026950D02*
D03*
X032250Y026950D02*
D03*
X037250Y026950D02*
D03*
X035250Y043550D02*
D03*
X030250Y043550D02*
D03*
X040250Y043500D02*
D03*
X045250Y043550D02*
D03*
D25*
X013600Y046000D02*
D03*
D26*
X013600Y045000D02*
D03*
X013600Y044000D02*
D03*
X013600Y043000D02*
D03*
X013600Y042000D02*
D03*
X013600Y041000D02*
D03*
X013600Y040000D02*
D03*
X013600Y039000D02*
D03*
X013600Y038000D02*
D03*
X013600Y037000D02*
D03*
X013600Y036000D02*
D03*
X013600Y035000D02*
D03*
X013600Y034000D02*
D03*
X013600Y033000D02*
D03*
X013600Y032000D02*
D03*
X022750Y046000D02*
D03*
X022750Y045000D02*
D03*
X022750Y044000D02*
D03*
X022750Y043000D02*
D03*
X022750Y042000D02*
D03*
X022750Y041000D02*
D03*
X022750Y040000D02*
D03*
X022750Y039000D02*
D03*
X022750Y038000D02*
D03*
X022750Y037000D02*
D03*
X022750Y036000D02*
D03*
X022750Y035000D02*
D03*
X022750Y034000D02*
D03*
X022750Y033000D02*
D03*
X022750Y032000D02*
D03*
D27*
X020500Y027516D02*
D03*
X020500Y028500D02*
D03*
X020500Y029484D02*
D03*
X020500Y030468D02*
D03*
X017248Y027516D02*
D03*
X017248Y028500D02*
D03*
X017248Y029484D02*
D03*
D28*
X017248Y030468D02*
D03*
M02*
