G04 Layer_Color=65535*
%FSAX24Y24*%
%MOIN*%
G70*
G01*
G75*
%ADD11C,0.0200*%
%ADD19C,0.0100*%
%ADD20C,0.0079*%
D11*
X022250Y031500D02*
X022250Y046500D01*
X014165Y031500D02*
X022250Y031500D01*
X014165Y046500D02*
X022250Y046500D01*
X014165Y031500D02*
X014165Y046500D01*
X016600Y043350D02*
X016600Y045300D01*
X017050Y045300D01*
X017100Y045250D01*
X017100Y044150D02*
X017100Y045250D01*
X017100Y044150D02*
X017550Y044150D01*
X017600Y044200D01*
X017600Y045300D01*
X018050Y045300D01*
X018100Y045250D01*
X018100Y044150D02*
X018100Y045250D01*
X018100Y044150D02*
X018500Y044150D01*
X018600Y044250D01*
X018600Y045300D01*
X019050Y045300D01*
X019100Y045250D01*
X019100Y044150D02*
X019100Y045250D01*
X019100Y044150D02*
X019150Y044100D01*
X019550Y044100D01*
X019600Y044150D01*
X019600Y045300D01*
X020250Y045300D01*
D19*
X015000Y030000D02*
G03*
X015000Y030000I-001000J000000D01*
G01*
X023750Y028750D02*
G03*
X023750Y028750I-001000J000000D01*
G01*
X014600Y029350D02*
X014600Y029650D01*
X022150Y029100D02*
X022150Y029400D01*
X052600Y023100D02*
X053150Y023650D01*
X053150Y025750D01*
X049200Y025750D02*
X053150Y025750D01*
X049200Y023650D02*
X049200Y025750D01*
X049750Y023100D02*
X052600Y023100D01*
X049200Y023650D02*
X049750Y023100D01*
X020500Y023100D02*
X021050Y023650D01*
X021050Y025750D01*
X017100Y025750D02*
X021050Y025750D01*
X017100Y023650D02*
X017100Y025750D01*
X017650Y023100D02*
X020500Y023100D01*
X017100Y023650D02*
X017650Y023100D01*
X052750Y047400D02*
X053300Y046850D01*
X053300Y044750D02*
X053300Y046850D01*
X049900Y047400D02*
X052750Y047400D01*
X049350Y046850D02*
X049900Y047400D01*
X049350Y044750D02*
X053300Y044750D01*
X049350Y044750D02*
X049350Y046850D01*
X026100Y029450D02*
X026100Y031450D01*
X026100Y029450D02*
X026500Y029450D01*
X026900Y029450D01*
X026900Y031450D01*
X026100Y031450D02*
X026900Y031450D01*
X024850Y030550D02*
X024850Y032550D01*
X024850Y030550D02*
X025250Y030550D01*
X025650Y030550D01*
X025650Y032550D01*
X024850Y032550D02*
X025650Y032550D01*
X024400Y035300D02*
X024400Y037300D01*
X024000Y037300D02*
X024400Y037300D01*
X023600Y037300D02*
X024000Y037300D01*
X023600Y035300D02*
X023600Y037300D01*
X023600Y035300D02*
X024400Y035300D01*
X024400Y039450D02*
X024400Y041450D01*
X024000Y041450D02*
X024400Y041450D01*
X023600Y041450D02*
X024000Y041450D01*
X023600Y039450D02*
X023600Y041450D01*
X023600Y039450D02*
X024400Y039450D01*
X025650Y042950D02*
X025650Y044950D01*
X025250Y044950D02*
X025650Y044950D01*
X024850Y044950D02*
X025250Y044950D01*
X024850Y042950D02*
X024850Y044950D01*
X024850Y042950D02*
X025650Y042950D01*
X023600Y031300D02*
X023600Y033300D01*
X023600Y031300D02*
X024000Y031300D01*
X024400Y031300D01*
X024400Y033300D01*
X023600Y033300D02*
X024400Y033300D01*
X025650Y034700D02*
X025650Y036700D01*
X025250Y036700D02*
X025650Y036700D01*
X024850Y036700D02*
X025250Y036700D01*
X024850Y034700D02*
X024850Y036700D01*
X024850Y034700D02*
X025650Y034700D01*
X025650Y038950D02*
X025650Y040950D01*
X025250Y040950D02*
X025650Y040950D01*
X024850Y040950D02*
X025250Y040950D01*
X024850Y038950D02*
X024850Y040950D01*
X024850Y038950D02*
X025650Y038950D01*
X026900Y042450D02*
X026900Y044450D01*
X026500Y044450D02*
X026900Y044450D01*
X026100Y044450D02*
X026500Y044450D01*
X026100Y042450D02*
X026100Y044450D01*
X026100Y042450D02*
X026900Y042450D01*
X024400Y043450D02*
X024400Y045450D01*
X024000Y045450D02*
X024400Y045450D01*
X023600Y045450D02*
X024000Y045450D01*
X023600Y043450D02*
X023600Y045450D01*
X023600Y043450D02*
X024400Y043450D01*
X015350Y025800D02*
X015350Y027800D01*
X015350Y025800D02*
X015750Y025800D01*
X016150Y025800D01*
X016150Y027800D01*
X015350Y027800D02*
X016150Y027800D01*
X029350Y046850D02*
X029900Y047400D01*
X029350Y044750D02*
X029350Y046850D01*
X029350Y044750D02*
X033300Y044750D01*
X029900Y047400D02*
X032750Y047400D01*
X033300Y046850D01*
X033300Y044750D02*
X033300Y046850D01*
X014250Y027900D02*
X014700Y027900D01*
X014700Y025900D02*
X014700Y027900D01*
X013800Y025900D02*
X014700Y025900D01*
X013800Y025900D02*
X013800Y027900D01*
X014250Y027900D01*
X013800Y026250D02*
X014700Y026250D01*
X024600Y026550D02*
X024600Y027000D01*
X022600Y026550D02*
X024600Y026550D01*
X022600Y026550D02*
X022600Y027450D01*
X024600Y027450D01*
X024600Y027000D02*
X024600Y027450D01*
X022950Y026550D02*
X022950Y027450D01*
X017750Y031550D02*
X017750Y032350D01*
X018950Y032350D01*
X018950Y031550D02*
X018950Y032350D01*
X047600Y023100D02*
X048150Y023650D01*
X048150Y025750D01*
X044200Y025750D02*
X048150Y025750D01*
X044750Y023100D02*
X047600Y023100D01*
X044200Y023650D02*
X044750Y023100D01*
X044200Y023650D02*
X044200Y025750D01*
X042600Y023100D02*
X043150Y023650D01*
X043150Y025750D01*
X039200Y025750D02*
X043150Y025750D01*
X039750Y023100D02*
X042600Y023100D01*
X039200Y023650D02*
X039750Y023100D01*
X039200Y023650D02*
X039200Y025750D01*
X032600Y023100D02*
X033150Y023650D01*
X033150Y025750D01*
X029200Y025750D02*
X033150Y025750D01*
X029750Y023100D02*
X032600Y023100D01*
X029200Y023650D02*
X029750Y023100D01*
X029200Y023650D02*
X029200Y025750D01*
X037600Y023100D02*
X038150Y023650D01*
X038150Y025750D01*
X034200Y025750D02*
X038150Y025750D01*
X034750Y023100D02*
X037600Y023100D01*
X034200Y023650D02*
X034750Y023100D01*
X034200Y023650D02*
X034200Y025750D01*
X034350Y046850D02*
X034900Y047400D01*
X034350Y044750D02*
X034350Y046850D01*
X034350Y044750D02*
X038300Y044750D01*
X034900Y047400D02*
X037750Y047400D01*
X038300Y046850D01*
X038300Y044750D02*
X038300Y046850D01*
X039350Y046850D02*
X039900Y047400D01*
X039350Y044750D02*
X039350Y046850D01*
X039350Y044750D02*
X043300Y044750D01*
X039900Y047400D02*
X042750Y047400D01*
X043300Y046850D01*
X043300Y044750D02*
X043300Y046850D01*
X044350Y046850D02*
X044900Y047400D01*
X044350Y044750D02*
X044350Y046850D01*
X044350Y044750D02*
X048300Y044750D01*
X044900Y047400D02*
X047750Y047400D01*
X048300Y046850D01*
X048300Y044750D02*
X048300Y046850D01*
X039767Y044550D02*
X039633Y044550D01*
X039700Y044550D01*
X039700Y044217D01*
X039633Y044150D01*
X039567Y044150D01*
X039500Y044217D01*
X040100Y044150D02*
X040100Y044550D01*
X039900Y044350D01*
X040166Y044350D01*
X015517Y030833D02*
X015450Y030900D01*
X015317Y030900D01*
X015250Y030833D01*
X015250Y030567D01*
X015317Y030500D01*
X015450Y030500D01*
X015517Y030567D01*
X015916Y030500D02*
X015650Y030500D01*
X015916Y030767D01*
X015916Y030833D01*
X015850Y030900D01*
X015717Y030900D01*
X015650Y030833D01*
X052117Y026350D02*
X051983Y026350D01*
X052050Y026350D01*
X052050Y026017D01*
X051983Y025950D01*
X051917Y025950D01*
X051850Y026017D01*
X052250Y025950D02*
X052383Y025950D01*
X052317Y025950D01*
X052317Y026350D01*
X052250Y026283D01*
X052583Y025950D02*
X052716Y025950D01*
X052650Y025950D01*
X052650Y026350D01*
X052583Y026283D01*
X044717Y044550D02*
X044583Y044550D01*
X044650Y044550D01*
X044650Y044217D01*
X044583Y044150D01*
X044517Y044150D01*
X044450Y044217D01*
X044850Y044483D02*
X044917Y044550D01*
X045050Y044550D01*
X045116Y044483D01*
X045116Y044417D01*
X045050Y044350D01*
X044983Y044350D01*
X045050Y044350D01*
X045116Y044283D01*
X045116Y044217D01*
X045050Y044150D01*
X044917Y044150D01*
X044850Y044217D01*
X013750Y024400D02*
X013750Y024000D01*
X013950Y024000D01*
X014017Y024067D01*
X014017Y024333D01*
X013950Y024400D01*
X013750Y024400D01*
X014416Y024000D02*
X014150Y024000D01*
X014416Y024267D01*
X014416Y024333D01*
X014350Y024400D01*
X014217Y024400D01*
X014150Y024333D01*
X018500Y026650D02*
X018500Y026317D01*
X018567Y026250D01*
X018700Y026250D01*
X018767Y026317D01*
X018767Y026650D01*
X018900Y026250D02*
X019033Y026250D01*
X018967Y026250D01*
X018967Y026650D01*
X018900Y026583D01*
X029767Y044553D02*
X029633Y044553D01*
X029700Y044553D01*
X029700Y044220D01*
X029633Y044153D01*
X029567Y044153D01*
X029500Y044220D01*
X030166Y044553D02*
X029900Y044553D01*
X029900Y044353D01*
X030033Y044420D01*
X030100Y044420D01*
X030166Y044353D01*
X030166Y044220D01*
X030100Y044153D01*
X029967Y044153D01*
X029900Y044220D01*
X022067Y030433D02*
X022000Y030500D01*
X021867Y030500D01*
X021800Y030433D01*
X021800Y030167D01*
X021867Y030100D01*
X022000Y030100D01*
X022067Y030167D01*
X022200Y030100D02*
X022333Y030100D01*
X022267Y030100D01*
X022267Y030500D01*
X022200Y030433D01*
X015500Y024400D02*
X015500Y024000D01*
X015767Y024000D01*
X015900Y024000D02*
X016033Y024000D01*
X015967Y024000D01*
X015967Y024400D01*
X015900Y024333D01*
X042417Y026350D02*
X042283Y026350D01*
X042350Y026350D01*
X042350Y026017D01*
X042283Y025950D01*
X042217Y025950D01*
X042150Y026017D01*
X042550Y026017D02*
X042617Y025950D01*
X042750Y025950D01*
X042816Y026017D01*
X042816Y026283D01*
X042750Y026350D01*
X042617Y026350D01*
X042550Y026283D01*
X042550Y026217D01*
X042617Y026150D01*
X042816Y026150D01*
X023250Y026150D02*
X023250Y025750D01*
X023450Y025750D01*
X023517Y025817D01*
X023517Y026083D01*
X023450Y026150D01*
X023250Y026150D01*
X023650Y025750D02*
X023783Y025750D01*
X023717Y025750D01*
X023717Y026150D01*
X023650Y026083D01*
X032417Y026350D02*
X032283Y026350D01*
X032350Y026350D01*
X032350Y026017D01*
X032283Y025950D01*
X032217Y025950D01*
X032150Y026017D01*
X032550Y026283D02*
X032617Y026350D01*
X032750Y026350D01*
X032816Y026283D01*
X032816Y026217D01*
X032750Y026150D01*
X032816Y026083D01*
X032816Y026017D01*
X032750Y025950D01*
X032617Y025950D01*
X032550Y026017D01*
X032550Y026083D01*
X032617Y026150D01*
X032550Y026217D01*
X032550Y026283D01*
X032617Y026150D02*
X032750Y026150D01*
X037467Y026350D02*
X037333Y026350D01*
X037400Y026350D01*
X037400Y026017D01*
X037333Y025950D01*
X037267Y025950D01*
X037200Y026017D01*
X037600Y026350D02*
X037866Y026350D01*
X037866Y026283D01*
X037600Y026017D01*
X037600Y025950D01*
X049717Y044550D02*
X049583Y044550D01*
X049650Y044550D01*
X049650Y044217D01*
X049583Y044150D01*
X049517Y044150D01*
X049450Y044217D01*
X050116Y044150D02*
X049850Y044150D01*
X050116Y044417D01*
X050116Y044483D01*
X050050Y044550D01*
X049917Y044550D01*
X049850Y044483D01*
X046967Y026350D02*
X046833Y026350D01*
X046900Y026350D01*
X046900Y026017D01*
X046833Y025950D01*
X046767Y025950D01*
X046700Y026017D01*
X047100Y025950D02*
X047233Y025950D01*
X047167Y025950D01*
X047167Y026350D01*
X047100Y026283D01*
X047433Y026283D02*
X047500Y026350D01*
X047633Y026350D01*
X047700Y026283D01*
X047700Y026017D01*
X047633Y025950D01*
X047500Y025950D01*
X047433Y026017D01*
X047433Y026283D01*
X034767Y044550D02*
X034633Y044550D01*
X034700Y044550D01*
X034700Y044217D01*
X034633Y044150D01*
X034567Y044150D01*
X034500Y044217D01*
X035166Y044550D02*
X035033Y044483D01*
X034900Y044350D01*
X034900Y044217D01*
X034967Y044150D01*
X035100Y044150D01*
X035166Y044217D01*
X035166Y044283D01*
X035100Y044350D01*
X034900Y044350D01*
X019750Y022300D02*
X020150Y022300D01*
X019950Y022500D02*
X019950Y022100D01*
X032000Y044300D02*
X032400Y044300D01*
X037000Y044300D02*
X037400Y044300D01*
X042000Y044300D02*
X042400Y044300D01*
X047000Y044300D02*
X047400Y044300D01*
X050000Y026300D02*
X050400Y026300D01*
X045000Y026300D02*
X045400Y026300D01*
X040000Y026300D02*
X040400Y026300D01*
X035000Y026300D02*
X035400Y026300D01*
X030000Y026300D02*
X030400Y026300D01*
X052000Y044300D02*
X052400Y044300D01*
X050850Y047750D02*
X050850Y048350D01*
X051050Y048350D02*
X051050Y047750D01*
X050750Y048150D02*
X051050Y048150D01*
X051150Y048150D01*
X050750Y047950D02*
X051150Y047950D01*
X051650Y047750D02*
X051650Y048350D01*
X051350Y048050D01*
X051750Y048050D01*
X045850Y047750D02*
X045850Y048350D01*
X046050Y048350D02*
X046050Y047750D01*
X045750Y048150D02*
X046050Y048150D01*
X046150Y048150D01*
X045750Y047950D02*
X046150Y047950D01*
X046350Y048250D02*
X046450Y048350D01*
X046650Y048350D01*
X046750Y048250D01*
X046750Y048150D01*
X046650Y048050D01*
X046550Y048050D01*
X046650Y048050D01*
X046750Y047950D01*
X046750Y047850D01*
X046650Y047750D01*
X046450Y047750D01*
X046350Y047850D01*
X040850Y047750D02*
X040850Y048350D01*
X041050Y048350D02*
X041050Y047750D01*
X040750Y048150D02*
X041050Y048150D01*
X041150Y048150D01*
X040750Y047950D02*
X041150Y047950D01*
X041750Y047750D02*
X041350Y047750D01*
X041750Y048150D01*
X041750Y048250D01*
X041650Y048350D01*
X041450Y048350D01*
X041350Y048250D01*
X036100Y047750D02*
X036100Y048350D01*
X036300Y048350D02*
X036300Y047750D01*
X036000Y048150D02*
X036300Y048150D01*
X036400Y048150D01*
X036000Y047950D02*
X036400Y047950D01*
X036600Y047750D02*
X036800Y047750D01*
X036700Y047750D01*
X036700Y048350D01*
X036600Y048250D01*
X031100Y047750D02*
X031100Y048350D01*
X031300Y048350D02*
X031300Y047750D01*
X031000Y048150D02*
X031300Y048150D01*
X031400Y048150D01*
X031000Y047950D02*
X031400Y047950D01*
X031600Y048250D02*
X031700Y048350D01*
X031900Y048350D01*
X032000Y048250D01*
X032000Y047850D01*
X031900Y047750D01*
X031700Y047750D01*
X031600Y047850D01*
X031600Y048250D01*
X050850Y022250D02*
X050850Y022850D01*
X051050Y022850D02*
X051050Y022250D01*
X050750Y022650D02*
X051050Y022650D01*
X051150Y022650D01*
X050750Y022450D02*
X051150Y022450D01*
X051350Y022350D02*
X051450Y022250D01*
X051650Y022250D01*
X051750Y022350D01*
X051750Y022750D01*
X051650Y022850D01*
X051450Y022850D01*
X051350Y022750D01*
X051350Y022650D01*
X051450Y022550D01*
X051750Y022550D01*
X045850Y022250D02*
X045850Y022850D01*
X046050Y022850D02*
X046050Y022250D01*
X045750Y022650D02*
X046050Y022650D01*
X046150Y022650D01*
X045750Y022450D02*
X046150Y022450D01*
X046350Y022750D02*
X046450Y022850D01*
X046650Y022850D01*
X046750Y022750D01*
X046750Y022650D01*
X046650Y022550D01*
X046750Y022450D01*
X046750Y022350D01*
X046650Y022250D01*
X046450Y022250D01*
X046350Y022350D01*
X046350Y022450D01*
X046450Y022550D01*
X046350Y022650D01*
X046350Y022750D01*
X046450Y022550D02*
X046650Y022550D01*
X040850Y022250D02*
X040850Y022850D01*
X041050Y022850D02*
X041050Y022250D01*
X040750Y022650D02*
X041050Y022650D01*
X041150Y022650D01*
X040750Y022450D02*
X041150Y022450D01*
X041350Y022850D02*
X041750Y022850D01*
X041750Y022750D01*
X041350Y022350D01*
X041350Y022250D01*
X035850Y022250D02*
X035850Y022850D01*
X036050Y022850D02*
X036050Y022250D01*
X035750Y022650D02*
X036050Y022650D01*
X036150Y022650D01*
X035750Y022450D02*
X036150Y022450D01*
X036750Y022850D02*
X036550Y022750D01*
X036350Y022550D01*
X036350Y022350D01*
X036450Y022250D01*
X036650Y022250D01*
X036750Y022350D01*
X036750Y022450D01*
X036650Y022550D01*
X036350Y022550D01*
X030850Y022250D02*
X030850Y022850D01*
X031050Y022850D02*
X031050Y022250D01*
X030750Y022650D02*
X031050Y022650D01*
X031150Y022650D01*
X030750Y022450D02*
X031150Y022450D01*
X031750Y022850D02*
X031350Y022850D01*
X031350Y022550D01*
X031550Y022650D01*
X031650Y022650D01*
X031750Y022550D01*
X031750Y022350D01*
X031650Y022250D01*
X031450Y022250D01*
X031350Y022350D01*
X018000Y022300D02*
X018400Y022300D01*
D20*
X018628Y030961D02*
G03*
X019120Y030961I000246J000000D01*
G01*
X018069Y027024D02*
X018069Y030961D01*
X018069Y027024D02*
X019679Y027024D01*
X019679Y030961D01*
X019120Y030961D02*
X019679Y030961D01*
X018069Y030961D02*
X018628Y030961D01*
M02*
