M48
;Layer_Color=9474304
;FILE_FORMAT=2:4
INCH
;TYPE=PLATED
T1F00S00C0.0236
T2F00S00C0.0250
T3F00S00C0.0280
T4F00S00C0.1000
;TYPE=NON_PLATED
T5F00S00C0.1000
%
T01
X047100Y024500
X047250Y026950
X050250Y026950
X051250Y026950
X052250Y026950
X052100Y024500
X050250Y024500
X045250Y024500
X045250Y026950
X046250Y026950
X042250Y026950
X041250Y026950
X040250Y026950
X040250Y024500
X042100Y024500
X037100Y024500
X035250Y024500
X035250Y026950
X036250Y026950
X037250Y026950
X032250Y026950
X031250Y026950
X032100Y024500
X030250Y024500
X030250Y026950
X020500Y027516
X020500Y028500
X020500Y029484
X020500Y030468
X017248Y030468
X017248Y029484
X017248Y028500
X017248Y027516
X018150Y024500
X020000Y024500
X013600Y032000
X013600Y033000
X013600Y034000
X013600Y035000
X013600Y036000
X013600Y037000
X013600Y038000
X013600Y039000
X013600Y040000
X013600Y041000
X013600Y042000
X013600Y043000
X013600Y044000
X013600Y045000
X013600Y046000
X022750Y046000
X022750Y045000
X022750Y044000
X022750Y043000
X022750Y042000
X022750Y041000
X022750Y040000
X022750Y039000
X022750Y038000
X022750Y037000
X022750Y036000
X022750Y035000
X022750Y034000
X022750Y033000
X022750Y032000
X030250Y043550
X030400Y046000
X032250Y046000
X032250Y043550
X031250Y043550
X035250Y043550
X036250Y043550
X037250Y043550
X037250Y046000
X035400Y046000
X040400Y046000
X042250Y046000
X042250Y043500
X041250Y043500
X040250Y043500
X045250Y043550
X046250Y043550
X045400Y046000
X047250Y046000
X047250Y043550
X050250Y043500
X051250Y043500
X052250Y043500
X052250Y046000
X050400Y046000
T02
X015750Y025250
X015750Y028350
X024000Y030750
X025250Y030000
X026500Y028900
X026500Y032000
X025250Y033100
X025250Y034150
X024000Y033850
X024000Y034750
X024000Y037850
X024000Y038900
X025250Y038400
X025250Y037250
X025250Y041500
X025250Y042400
X024000Y042000
X024000Y042900
X024000Y046000
X025250Y045500
X026500Y045000
X026500Y041900
T03
X021950Y027000
X022750Y028250
X022750Y029300
X025250Y027000
X014250Y028550
X014000Y029450
X014000Y030500
X014250Y025250
T04
X053250Y022500
X053250Y048250
T05
X013250Y022500
X013250Y048250
M30
