G04 Layer_Physical_Order=2*
G04 Layer_Color=16711680*
%FSAX24Y24*%
%MOIN*%
G70*
G01*
G75*
%ADD11C,0.0200*%
%ADD12C,0.0500*%
%ADD13C,0.0500*%
%ADD14R,0.0500X0.0500*%
%ADD15R,0.0472X0.0472*%
%ADD16C,0.0472*%
%ADD17O,0.0984X0.0472*%
%ADD18R,0.0984X0.0472*%
G36*
X052908Y048700D02*
X052854Y048658D01*
X052849Y048651D01*
X052842Y048646D01*
X052762Y048542D01*
X052759Y048533D01*
X052753Y048527D01*
X052703Y048405D01*
X052703Y048397D01*
X052698Y048389D01*
X052681Y048258D01*
X052684Y048250D01*
X052681Y048242D01*
X052698Y048111D01*
X052703Y048103D01*
X052703Y048095D01*
X052753Y047973D01*
X052759Y047967D01*
X052762Y047958D01*
X052842Y047854D01*
X052849Y047849D01*
X052854Y047842D01*
X052958Y047762D01*
X052967Y047759D01*
X052973Y047753D01*
X053095Y047703D01*
X053103Y047703D01*
X053111Y047698D01*
X053242Y047681D01*
X053246Y047682D01*
X053250Y047681D01*
X053254Y047682D01*
X053258Y047681D01*
X053389Y047698D01*
X053397Y047703D01*
X053405Y047703D01*
X053527Y047753D01*
X053533Y047759D01*
X053542Y047762D01*
X053646Y047842D01*
X053651Y047849D01*
X053658Y047854D01*
X053700Y047908D01*
X053750Y047891D01*
X053750Y022859D01*
X053700Y022842D01*
X053658Y022896D01*
X053651Y022901D01*
X053646Y022908D01*
X053542Y022988D01*
X053533Y022991D01*
X053527Y022997D01*
X053405Y023047D01*
X053397Y023047D01*
X053389Y023052D01*
X053258Y023069D01*
X053254Y023068D01*
X053250Y023069D01*
X053246Y023068D01*
X053242Y023069D01*
X053111Y023052D01*
X053103Y023047D01*
X053095Y023047D01*
X052973Y022997D01*
X052967Y022991D01*
X052958Y022988D01*
X052854Y022908D01*
X052849Y022901D01*
X052842Y022896D01*
X052762Y022792D01*
X052759Y022783D01*
X052753Y022777D01*
X052703Y022655D01*
X052703Y022647D01*
X052698Y022639D01*
X052681Y022508D01*
X052684Y022500D01*
X052681Y022492D01*
X052698Y022361D01*
X052703Y022353D01*
X052703Y022345D01*
X052753Y022223D01*
X052759Y022217D01*
X052762Y022208D01*
X052842Y022104D01*
X052849Y022099D01*
X052854Y022092D01*
X052908Y022050D01*
X052891Y022000D01*
X018500Y022000D01*
X018000Y022500D01*
X018000Y024182D01*
X018042Y024209D01*
X018069Y024198D01*
X018150Y024187D01*
X018231Y024198D01*
X018306Y024229D01*
X018371Y024279D01*
X018421Y024344D01*
X018452Y024419D01*
X018463Y024500D01*
X018452Y024581D01*
X018421Y024656D01*
X018371Y024721D01*
X018306Y024771D01*
X018231Y024802D01*
X018150Y024813D01*
X018069Y024802D01*
X018042Y024791D01*
X018000Y024818D01*
X018000Y026750D01*
X019966Y028716D01*
X019972Y028715D01*
X019992Y028659D01*
X019985Y028649D01*
X019956Y028577D01*
X019945Y028500D01*
X019956Y028423D01*
X019985Y028351D01*
X020033Y028289D01*
X020095Y028241D01*
X020167Y028211D01*
X020244Y028201D01*
X020756Y028201D01*
X020833Y028211D01*
X020905Y028241D01*
X020967Y028289D01*
X021015Y028351D01*
X021044Y028423D01*
X021055Y028500D01*
X021044Y028577D01*
X021015Y028649D01*
X020976Y028700D01*
X020992Y028750D01*
X024787Y028750D01*
X024788Y028749D01*
X024850Y028737D01*
X026234Y028737D01*
X026279Y028679D01*
X026344Y028629D01*
X026419Y028598D01*
X026500Y028587D01*
X026581Y028598D01*
X026656Y028629D01*
X026721Y028679D01*
X026771Y028744D01*
X026773Y028750D01*
X028750Y028750D01*
X029500Y029500D01*
X029500Y048250D01*
X030000Y048750D01*
X052891Y048750D01*
X052908Y048700D01*
X052908Y048700D02*
G37*
%LPC*%
G36*
X042500Y027265D02*
X042000Y027265D01*
X041954Y027246D01*
X041935Y027200D01*
X041935Y026700D01*
X041954Y026654D01*
X042000Y026635D01*
X042500Y026635D01*
X042546Y026654D01*
X042565Y026700D01*
X042565Y027200D01*
X042546Y027246D01*
X042500Y027265D01*
X042500Y027265D02*
G37*
G36*
X047500Y027265D02*
X047000Y027265D01*
X046954Y027246D01*
X046935Y027200D01*
X046935Y026700D01*
X046954Y026654D01*
X047000Y026635D01*
X047500Y026635D01*
X047546Y026654D01*
X047565Y026700D01*
X047565Y027200D01*
X047546Y027246D01*
X047500Y027265D01*
X047500Y027265D02*
G37*
G36*
X031250Y027263D02*
X031169Y027252D01*
X031094Y027221D01*
X031029Y027171D01*
X030979Y027106D01*
X030948Y027031D01*
X030937Y026950D01*
X030948Y026869D01*
X030979Y026794D01*
X031029Y026729D01*
X031094Y026679D01*
X031169Y026648D01*
X031250Y026637D01*
X031331Y026648D01*
X031406Y026679D01*
X031471Y026729D01*
X031521Y026794D01*
X031552Y026869D01*
X031563Y026950D01*
X031552Y027031D01*
X031521Y027106D01*
X031471Y027171D01*
X031406Y027221D01*
X031331Y027252D01*
X031250Y027263D01*
X031250Y027263D02*
G37*
G36*
X052500Y027265D02*
X052000Y027265D01*
X051954Y027246D01*
X051935Y027200D01*
X051935Y026700D01*
X051954Y026654D01*
X052000Y026635D01*
X052500Y026635D01*
X052546Y026654D01*
X052565Y026700D01*
X052565Y027200D01*
X052546Y027246D01*
X052500Y027265D01*
X052500Y027265D02*
G37*
G36*
X037500Y027265D02*
X037000Y027265D01*
X036954Y027246D01*
X036935Y027200D01*
X036935Y026700D01*
X036954Y026654D01*
X037000Y026635D01*
X037500Y026635D01*
X037546Y026654D01*
X037565Y026700D01*
X037565Y027200D01*
X037546Y027246D01*
X037500Y027265D01*
X037500Y027265D02*
G37*
G36*
X042140Y024807D02*
X042140Y024540D01*
X042407Y024540D01*
X042402Y024581D01*
X042371Y024656D01*
X042321Y024721D01*
X042256Y024771D01*
X042181Y024802D01*
X042140Y024807D01*
X042140Y024807D02*
G37*
G36*
X037140Y024807D02*
X037140Y024540D01*
X037407Y024540D01*
X037402Y024581D01*
X037371Y024656D01*
X037321Y024721D01*
X037256Y024771D01*
X037181Y024802D01*
X037140Y024807D01*
X037140Y024807D02*
G37*
G36*
X047140Y024807D02*
X047140Y024540D01*
X047407Y024540D01*
X047402Y024581D01*
X047371Y024656D01*
X047321Y024721D01*
X047256Y024771D01*
X047181Y024802D01*
X047140Y024807D01*
X047140Y024807D02*
G37*
G36*
X032500Y027265D02*
X032000Y027265D01*
X031954Y027246D01*
X031935Y027200D01*
X031935Y026700D01*
X031954Y026654D01*
X032000Y026635D01*
X032500Y026635D01*
X032546Y026654D01*
X032565Y026700D01*
X032565Y027200D01*
X032546Y027246D01*
X032500Y027265D01*
X032500Y027265D02*
G37*
G36*
X052140Y024807D02*
X052140Y024540D01*
X052407Y024540D01*
X052402Y024581D01*
X052371Y024656D01*
X052321Y024721D01*
X052256Y024771D01*
X052181Y024802D01*
X052140Y024807D01*
X052140Y024807D02*
G37*
G36*
X022257Y026960D02*
X021990Y026960D01*
X021990Y026693D01*
X022031Y026698D01*
X022106Y026729D01*
X022171Y026779D01*
X022221Y026844D01*
X022252Y026919D01*
X022257Y026960D01*
X022257Y026960D02*
G37*
G36*
X021910Y026960D02*
X021643Y026960D01*
X021648Y026919D01*
X021679Y026844D01*
X021729Y026779D01*
X021794Y026729D01*
X021869Y026698D01*
X021910Y026693D01*
X021910Y026960D01*
X021910Y026960D02*
G37*
G36*
X021910Y027307D02*
X021869Y027302D01*
X021794Y027271D01*
X021729Y027221D01*
X021679Y027156D01*
X021648Y027081D01*
X021643Y027040D01*
X021910Y027040D01*
X021910Y027307D01*
X021910Y027307D02*
G37*
G36*
X020460Y027476D02*
X019951Y027476D01*
X019956Y027438D01*
X019985Y027366D01*
X020033Y027304D01*
X020095Y027257D01*
X020167Y027227D01*
X020244Y027217D01*
X020460Y027217D01*
X020460Y027476D01*
X020460Y027476D02*
G37*
G36*
X021990Y027307D02*
X021990Y027040D01*
X022257Y027040D01*
X022252Y027081D01*
X022221Y027156D01*
X022171Y027221D01*
X022106Y027271D01*
X022031Y027302D01*
X021990Y027307D01*
X021990Y027307D02*
G37*
G36*
X041250Y027263D02*
X041169Y027252D01*
X041094Y027221D01*
X041029Y027171D01*
X040979Y027106D01*
X040948Y027031D01*
X040937Y026950D01*
X040948Y026869D01*
X040979Y026794D01*
X041029Y026729D01*
X041094Y026679D01*
X041169Y026648D01*
X041250Y026637D01*
X041331Y026648D01*
X041406Y026679D01*
X041471Y026729D01*
X041521Y026794D01*
X041552Y026869D01*
X041563Y026950D01*
X041552Y027031D01*
X041521Y027106D01*
X041471Y027171D01*
X041406Y027221D01*
X041331Y027252D01*
X041250Y027263D01*
X041250Y027263D02*
G37*
G36*
X036250Y027263D02*
X036169Y027252D01*
X036094Y027221D01*
X036029Y027171D01*
X035979Y027106D01*
X035948Y027031D01*
X035937Y026950D01*
X035948Y026869D01*
X035979Y026794D01*
X036029Y026729D01*
X036094Y026679D01*
X036169Y026648D01*
X036250Y026637D01*
X036331Y026648D01*
X036406Y026679D01*
X036471Y026729D01*
X036521Y026794D01*
X036552Y026869D01*
X036563Y026950D01*
X036552Y027031D01*
X036521Y027106D01*
X036471Y027171D01*
X036406Y027221D01*
X036331Y027252D01*
X036250Y027263D01*
X036250Y027263D02*
G37*
G36*
X046250Y027263D02*
X046169Y027252D01*
X046094Y027221D01*
X046029Y027171D01*
X045979Y027106D01*
X045948Y027031D01*
X045937Y026950D01*
X045948Y026869D01*
X045979Y026794D01*
X046029Y026729D01*
X046094Y026679D01*
X046169Y026648D01*
X046250Y026637D01*
X046331Y026648D01*
X046406Y026679D01*
X046471Y026729D01*
X046521Y026794D01*
X046552Y026869D01*
X046563Y026950D01*
X046552Y027031D01*
X046521Y027106D01*
X046471Y027171D01*
X046406Y027221D01*
X046331Y027252D01*
X046250Y027263D01*
X046250Y027263D02*
G37*
G36*
X025250Y027313D02*
X025169Y027302D01*
X025094Y027271D01*
X025029Y027221D01*
X024979Y027156D01*
X024948Y027081D01*
X024937Y027000D01*
X024948Y026919D01*
X024979Y026844D01*
X025029Y026779D01*
X025094Y026729D01*
X025169Y026698D01*
X025250Y026687D01*
X025331Y026698D01*
X025406Y026729D01*
X025471Y026779D01*
X025521Y026844D01*
X025552Y026919D01*
X025563Y027000D01*
X025552Y027081D01*
X025521Y027156D01*
X025471Y027221D01*
X025406Y027271D01*
X025331Y027302D01*
X025250Y027313D01*
X025250Y027313D02*
G37*
G36*
X051250Y027263D02*
X051169Y027252D01*
X051094Y027221D01*
X051029Y027171D01*
X050979Y027106D01*
X050948Y027031D01*
X050937Y026950D01*
X050948Y026869D01*
X050979Y026794D01*
X051029Y026729D01*
X051094Y026679D01*
X051169Y026648D01*
X051250Y026637D01*
X051331Y026648D01*
X051406Y026679D01*
X051471Y026729D01*
X051521Y026794D01*
X051552Y026869D01*
X051563Y026950D01*
X051552Y027031D01*
X051521Y027106D01*
X051471Y027171D01*
X051406Y027221D01*
X051331Y027252D01*
X051250Y027263D01*
X051250Y027263D02*
G37*
G36*
X032140Y024807D02*
X032140Y024540D01*
X032407Y024540D01*
X032402Y024581D01*
X032371Y024656D01*
X032321Y024721D01*
X032256Y024771D01*
X032181Y024802D01*
X032140Y024807D01*
X032140Y024807D02*
G37*
G36*
X032060Y024460D02*
X031793Y024460D01*
X031798Y024419D01*
X031829Y024344D01*
X031879Y024279D01*
X031944Y024229D01*
X032019Y024198D01*
X032060Y024193D01*
X032060Y024460D01*
X032060Y024460D02*
G37*
G36*
X050250Y027263D02*
X050169Y027252D01*
X050094Y027221D01*
X050029Y027171D01*
X049979Y027106D01*
X049948Y027031D01*
X049937Y026950D01*
X049937Y024500D01*
X049948Y024419D01*
X049979Y024344D01*
X050029Y024279D01*
X050094Y024229D01*
X050169Y024198D01*
X050250Y024187D01*
X050331Y024198D01*
X050406Y024229D01*
X050471Y024279D01*
X050521Y024344D01*
X050552Y024419D01*
X050563Y024500D01*
X050563Y026950D01*
X050552Y027031D01*
X050521Y027106D01*
X050471Y027171D01*
X050406Y027221D01*
X050331Y027252D01*
X050250Y027263D01*
X050250Y027263D02*
G37*
G36*
X037060Y024460D02*
X036793Y024460D01*
X036798Y024419D01*
X036829Y024344D01*
X036879Y024279D01*
X036944Y024229D01*
X037019Y024198D01*
X037060Y024193D01*
X037060Y024460D01*
X037060Y024460D02*
G37*
G36*
X047060Y024460D02*
X046793Y024460D01*
X046798Y024419D01*
X046829Y024344D01*
X046879Y024279D01*
X046944Y024229D01*
X047019Y024198D01*
X047060Y024193D01*
X047060Y024460D01*
X047060Y024460D02*
G37*
G36*
X042060Y024460D02*
X041793Y024460D01*
X041798Y024419D01*
X041829Y024344D01*
X041879Y024279D01*
X041944Y024229D01*
X042019Y024198D01*
X042060Y024193D01*
X042060Y024460D01*
X042060Y024460D02*
G37*
G36*
X030250Y027263D02*
X030169Y027252D01*
X030094Y027221D01*
X030029Y027171D01*
X029979Y027106D01*
X029948Y027031D01*
X029937Y026950D01*
X029937Y024500D01*
X029948Y024419D01*
X029979Y024344D01*
X030029Y024279D01*
X030094Y024229D01*
X030169Y024198D01*
X030250Y024187D01*
X030331Y024198D01*
X030406Y024229D01*
X030471Y024279D01*
X030521Y024344D01*
X030552Y024419D01*
X030563Y024500D01*
X030563Y026950D01*
X030552Y027031D01*
X030521Y027106D01*
X030471Y027171D01*
X030406Y027221D01*
X030331Y027252D01*
X030250Y027263D01*
X030250Y027263D02*
G37*
G36*
X020000Y024813D02*
X019919Y024802D01*
X019844Y024771D01*
X019779Y024721D01*
X019729Y024656D01*
X019698Y024581D01*
X019687Y024500D01*
X019698Y024419D01*
X019729Y024344D01*
X019779Y024279D01*
X019844Y024229D01*
X019919Y024198D01*
X020000Y024187D01*
X020081Y024198D01*
X020156Y024229D01*
X020221Y024279D01*
X020271Y024344D01*
X020302Y024419D01*
X020313Y024500D01*
X020302Y024581D01*
X020271Y024656D01*
X020221Y024721D01*
X020156Y024771D01*
X020081Y024802D01*
X020000Y024813D01*
X020000Y024813D02*
G37*
G36*
X035250Y027263D02*
X035169Y027252D01*
X035094Y027221D01*
X035029Y027171D01*
X034979Y027106D01*
X034948Y027031D01*
X034937Y026950D01*
X034937Y024500D01*
X034948Y024419D01*
X034979Y024344D01*
X035029Y024279D01*
X035094Y024229D01*
X035169Y024198D01*
X035250Y024187D01*
X035331Y024198D01*
X035406Y024229D01*
X035471Y024279D01*
X035521Y024344D01*
X035552Y024419D01*
X035563Y024500D01*
X035563Y026950D01*
X035552Y027031D01*
X035521Y027106D01*
X035471Y027171D01*
X035406Y027221D01*
X035331Y027252D01*
X035250Y027263D01*
X035250Y027263D02*
G37*
G36*
X045250Y027263D02*
X045169Y027252D01*
X045094Y027221D01*
X045029Y027171D01*
X044979Y027106D01*
X044948Y027031D01*
X044937Y026950D01*
X044937Y024500D01*
X044948Y024419D01*
X044979Y024344D01*
X045029Y024279D01*
X045094Y024229D01*
X045169Y024198D01*
X045250Y024187D01*
X045331Y024198D01*
X045406Y024229D01*
X045471Y024279D01*
X045521Y024344D01*
X045552Y024419D01*
X045563Y024500D01*
X045563Y026950D01*
X045552Y027031D01*
X045521Y027106D01*
X045471Y027171D01*
X045406Y027221D01*
X045331Y027252D01*
X045250Y027263D01*
X045250Y027263D02*
G37*
G36*
X040250Y027263D02*
X040169Y027252D01*
X040094Y027221D01*
X040029Y027171D01*
X039979Y027106D01*
X039948Y027031D01*
X039937Y026950D01*
X039937Y024500D01*
X039948Y024419D01*
X039979Y024344D01*
X040029Y024279D01*
X040094Y024229D01*
X040169Y024198D01*
X040250Y024187D01*
X040331Y024198D01*
X040406Y024229D01*
X040471Y024279D01*
X040521Y024344D01*
X040552Y024419D01*
X040563Y024500D01*
X040563Y026950D01*
X040552Y027031D01*
X040521Y027106D01*
X040471Y027171D01*
X040406Y027221D01*
X040331Y027252D01*
X040250Y027263D01*
X040250Y027263D02*
G37*
G36*
X052060Y024460D02*
X051793Y024460D01*
X051798Y024419D01*
X051829Y024344D01*
X051879Y024279D01*
X051944Y024229D01*
X052019Y024198D01*
X052060Y024193D01*
X052060Y024460D01*
X052060Y024460D02*
G37*
G36*
X037060Y024807D02*
X037019Y024802D01*
X036944Y024771D01*
X036879Y024721D01*
X036829Y024656D01*
X036798Y024581D01*
X036793Y024540D01*
X037060Y024540D01*
X037060Y024807D01*
X037060Y024807D02*
G37*
G36*
X032060Y024807D02*
X032019Y024802D01*
X031944Y024771D01*
X031879Y024721D01*
X031829Y024656D01*
X031798Y024581D01*
X031793Y024540D01*
X032060Y024540D01*
X032060Y024807D01*
X032060Y024807D02*
G37*
G36*
X042060Y024807D02*
X042019Y024802D01*
X041944Y024771D01*
X041879Y024721D01*
X041829Y024656D01*
X041798Y024581D01*
X041793Y024540D01*
X042060Y024540D01*
X042060Y024807D01*
X042060Y024807D02*
G37*
G36*
X052060Y024807D02*
X052019Y024802D01*
X051944Y024771D01*
X051879Y024721D01*
X051829Y024656D01*
X051798Y024581D01*
X051793Y024540D01*
X052060Y024540D01*
X052060Y024807D01*
X052060Y024807D02*
G37*
G36*
X047060Y024807D02*
X047019Y024802D01*
X046944Y024771D01*
X046879Y024721D01*
X046829Y024656D01*
X046798Y024581D01*
X046793Y024540D01*
X047060Y024540D01*
X047060Y024807D01*
X047060Y024807D02*
G37*
G36*
X037407Y024460D02*
X037140Y024460D01*
X037140Y024193D01*
X037181Y024198D01*
X037256Y024229D01*
X037321Y024279D01*
X037371Y024344D01*
X037402Y024419D01*
X037407Y024460D01*
X037407Y024460D02*
G37*
G36*
X032407Y024460D02*
X032140Y024460D01*
X032140Y024193D01*
X032181Y024198D01*
X032256Y024229D01*
X032321Y024279D01*
X032371Y024344D01*
X032402Y024419D01*
X032407Y024460D01*
X032407Y024460D02*
G37*
G36*
X042407Y024460D02*
X042140Y024460D01*
X042140Y024193D01*
X042181Y024198D01*
X042256Y024229D01*
X042321Y024279D01*
X042371Y024344D01*
X042402Y024419D01*
X042407Y024460D01*
X042407Y024460D02*
G37*
G36*
X052407Y024460D02*
X052140Y024460D01*
X052140Y024193D01*
X052181Y024198D01*
X052256Y024229D01*
X052321Y024279D01*
X052371Y024344D01*
X052402Y024419D01*
X052407Y024460D01*
X052407Y024460D02*
G37*
G36*
X047407Y024460D02*
X047140Y024460D01*
X047140Y024193D01*
X047181Y024198D01*
X047256Y024229D01*
X047321Y024279D01*
X047371Y024344D01*
X047402Y024419D01*
X047407Y024460D01*
X047407Y024460D02*
G37*
G36*
X050707Y045960D02*
X050440Y045960D01*
X050440Y045693D01*
X050481Y045698D01*
X050556Y045729D01*
X050621Y045779D01*
X050671Y045844D01*
X050702Y045919D01*
X050707Y045960D01*
X050707Y045960D02*
G37*
G36*
X050360Y045960D02*
X050093Y045960D01*
X050098Y045919D01*
X050129Y045844D01*
X050179Y045779D01*
X050244Y045729D01*
X050319Y045698D01*
X050360Y045693D01*
X050360Y045960D01*
X050360Y045960D02*
G37*
G36*
X030707Y045960D02*
X030440Y045960D01*
X030440Y045693D01*
X030481Y045698D01*
X030556Y045729D01*
X030621Y045779D01*
X030671Y045844D01*
X030702Y045919D01*
X030707Y045960D01*
X030707Y045960D02*
G37*
G36*
X040707Y045960D02*
X040440Y045960D01*
X040440Y045693D01*
X040481Y045698D01*
X040556Y045729D01*
X040621Y045779D01*
X040671Y045844D01*
X040702Y045919D01*
X040707Y045960D01*
X040707Y045960D02*
G37*
G36*
X035707Y045960D02*
X035440Y045960D01*
X035440Y045693D01*
X035481Y045698D01*
X035556Y045729D01*
X035621Y045779D01*
X035671Y045844D01*
X035702Y045919D01*
X035707Y045960D01*
X035707Y045960D02*
G37*
G36*
X030360Y045960D02*
X030093Y045960D01*
X030098Y045919D01*
X030129Y045844D01*
X030179Y045779D01*
X030244Y045729D01*
X030319Y045698D01*
X030360Y045693D01*
X030360Y045960D01*
X030360Y045960D02*
G37*
G36*
X047250Y046313D02*
X047169Y046302D01*
X047094Y046271D01*
X047029Y046221D01*
X046979Y046156D01*
X046948Y046081D01*
X046937Y046000D01*
X046937Y043550D01*
X046948Y043469D01*
X046979Y043394D01*
X047029Y043329D01*
X047094Y043279D01*
X047169Y043248D01*
X047250Y043237D01*
X047331Y043248D01*
X047406Y043279D01*
X047471Y043329D01*
X047521Y043394D01*
X047552Y043469D01*
X047563Y043550D01*
X047563Y046000D01*
X047552Y046081D01*
X047521Y046156D01*
X047471Y046221D01*
X047406Y046271D01*
X047331Y046302D01*
X047250Y046313D01*
X047250Y046313D02*
G37*
G36*
X035360Y045960D02*
X035093Y045960D01*
X035098Y045919D01*
X035129Y045844D01*
X035179Y045779D01*
X035244Y045729D01*
X035319Y045698D01*
X035360Y045693D01*
X035360Y045960D01*
X035360Y045960D02*
G37*
G36*
X045360Y045960D02*
X045093Y045960D01*
X045098Y045919D01*
X045129Y045844D01*
X045179Y045779D01*
X045244Y045729D01*
X045319Y045698D01*
X045360Y045693D01*
X045360Y045960D01*
X045360Y045960D02*
G37*
G36*
X040360Y045960D02*
X040093Y045960D01*
X040098Y045919D01*
X040129Y045844D01*
X040179Y045779D01*
X040244Y045729D01*
X040319Y045698D01*
X040360Y045693D01*
X040360Y045960D01*
X040360Y045960D02*
G37*
G36*
X045707Y045960D02*
X045440Y045960D01*
X045440Y045693D01*
X045481Y045698D01*
X045556Y045729D01*
X045621Y045779D01*
X045671Y045844D01*
X045702Y045919D01*
X045707Y045960D01*
X045707Y045960D02*
G37*
G36*
X035440Y046307D02*
X035440Y046040D01*
X035707Y046040D01*
X035702Y046081D01*
X035671Y046156D01*
X035621Y046221D01*
X035556Y046271D01*
X035481Y046302D01*
X035440Y046307D01*
X035440Y046307D02*
G37*
G36*
X030440Y046307D02*
X030440Y046040D01*
X030707Y046040D01*
X030702Y046081D01*
X030671Y046156D01*
X030621Y046221D01*
X030556Y046271D01*
X030481Y046302D01*
X030440Y046307D01*
X030440Y046307D02*
G37*
G36*
X040440Y046307D02*
X040440Y046040D01*
X040707Y046040D01*
X040702Y046081D01*
X040671Y046156D01*
X040621Y046221D01*
X040556Y046271D01*
X040481Y046302D01*
X040440Y046307D01*
X040440Y046307D02*
G37*
G36*
X050440Y046307D02*
X050440Y046040D01*
X050707Y046040D01*
X050702Y046081D01*
X050671Y046156D01*
X050621Y046221D01*
X050556Y046271D01*
X050481Y046302D01*
X050440Y046307D01*
X050440Y046307D02*
G37*
G36*
X045440Y046307D02*
X045440Y046040D01*
X045707Y046040D01*
X045702Y046081D01*
X045671Y046156D01*
X045621Y046221D01*
X045556Y046271D01*
X045481Y046302D01*
X045440Y046307D01*
X045440Y046307D02*
G37*
G36*
X035360Y046307D02*
X035319Y046302D01*
X035244Y046271D01*
X035179Y046221D01*
X035129Y046156D01*
X035098Y046081D01*
X035093Y046040D01*
X035360Y046040D01*
X035360Y046307D01*
X035360Y046307D02*
G37*
G36*
X030360Y046307D02*
X030319Y046302D01*
X030244Y046271D01*
X030179Y046221D01*
X030129Y046156D01*
X030098Y046081D01*
X030093Y046040D01*
X030360Y046040D01*
X030360Y046307D01*
X030360Y046307D02*
G37*
G36*
X040360Y046307D02*
X040319Y046302D01*
X040244Y046271D01*
X040179Y046221D01*
X040129Y046156D01*
X040098Y046081D01*
X040093Y046040D01*
X040360Y046040D01*
X040360Y046307D01*
X040360Y046307D02*
G37*
G36*
X050360Y046307D02*
X050319Y046302D01*
X050244Y046271D01*
X050179Y046221D01*
X050129Y046156D01*
X050098Y046081D01*
X050093Y046040D01*
X050360Y046040D01*
X050360Y046307D01*
X050360Y046307D02*
G37*
G36*
X045360Y046307D02*
X045319Y046302D01*
X045244Y046271D01*
X045179Y046221D01*
X045129Y046156D01*
X045098Y046081D01*
X045093Y046040D01*
X045360Y046040D01*
X045360Y046307D01*
X045360Y046307D02*
G37*
G36*
X022790Y028557D02*
X022790Y028290D01*
X023057Y028290D01*
X023052Y028331D01*
X023021Y028406D01*
X022971Y028471D01*
X022906Y028521D01*
X022831Y028552D01*
X022790Y028557D01*
X022790Y028557D02*
G37*
G36*
X022710Y028557D02*
X022669Y028552D01*
X022594Y028521D01*
X022529Y028471D01*
X022479Y028406D01*
X022448Y028331D01*
X022443Y028290D01*
X022710Y028290D01*
X022710Y028557D01*
X022710Y028557D02*
G37*
G36*
X040500Y043815D02*
X040000Y043815D01*
X039954Y043796D01*
X039935Y043750D01*
X039935Y043250D01*
X039954Y043204D01*
X040000Y043185D01*
X040500Y043185D01*
X040546Y043204D01*
X040565Y043250D01*
X040565Y043750D01*
X040546Y043796D01*
X040500Y043815D01*
X040500Y043815D02*
G37*
G36*
X041250Y043813D02*
X041169Y043802D01*
X041094Y043771D01*
X041029Y043721D01*
X040979Y043656D01*
X040948Y043581D01*
X040937Y043500D01*
X040948Y043419D01*
X040979Y043344D01*
X041029Y043279D01*
X041094Y043229D01*
X041169Y043198D01*
X041250Y043187D01*
X041331Y043198D01*
X041406Y043229D01*
X041471Y043279D01*
X041521Y043344D01*
X041552Y043419D01*
X041563Y043500D01*
X041552Y043581D01*
X041521Y043656D01*
X041471Y043721D01*
X041406Y043771D01*
X041331Y043802D01*
X041250Y043813D01*
X041250Y043813D02*
G37*
G36*
X050500Y043815D02*
X050000Y043815D01*
X049954Y043796D01*
X049935Y043750D01*
X049935Y043250D01*
X049954Y043204D01*
X050000Y043185D01*
X050500Y043185D01*
X050546Y043204D01*
X050565Y043250D01*
X050565Y043750D01*
X050546Y043796D01*
X050500Y043815D01*
X050500Y043815D02*
G37*
G36*
X020460Y027815D02*
X020244Y027815D01*
X020167Y027804D01*
X020095Y027775D01*
X020033Y027727D01*
X019985Y027665D01*
X019956Y027593D01*
X019951Y027556D01*
X020460Y027556D01*
X020460Y027815D01*
X020460Y027815D02*
G37*
G36*
X021049Y027476D02*
X020540Y027476D01*
X020540Y027217D01*
X020756Y027217D01*
X020833Y027227D01*
X020905Y027257D01*
X020967Y027304D01*
X021015Y027366D01*
X021044Y027438D01*
X021049Y027476D01*
X021049Y027476D02*
G37*
G36*
X020756Y027815D02*
X020540Y027815D01*
X020540Y027556D01*
X021049Y027556D01*
X021044Y027593D01*
X021015Y027665D01*
X020967Y027727D01*
X020905Y027775D01*
X020833Y027804D01*
X020756Y027815D01*
X020756Y027815D02*
G37*
G36*
X023057Y028210D02*
X022790Y028210D01*
X022790Y027943D01*
X022831Y027948D01*
X022906Y027979D01*
X022971Y028029D01*
X023021Y028094D01*
X023052Y028169D01*
X023057Y028210D01*
X023057Y028210D02*
G37*
G36*
X022710Y028210D02*
X022443Y028210D01*
X022448Y028169D01*
X022479Y028094D01*
X022529Y028029D01*
X022594Y027979D01*
X022669Y027948D01*
X022710Y027943D01*
X022710Y028210D01*
X022710Y028210D02*
G37*
G36*
X042250Y046313D02*
X042169Y046302D01*
X042094Y046271D01*
X042029Y046221D01*
X041979Y046156D01*
X041948Y046081D01*
X041937Y046000D01*
X041937Y043500D01*
X041948Y043419D01*
X041979Y043344D01*
X042029Y043279D01*
X042094Y043229D01*
X042169Y043198D01*
X042250Y043187D01*
X042331Y043198D01*
X042406Y043229D01*
X042471Y043279D01*
X042521Y043344D01*
X042552Y043419D01*
X042563Y043500D01*
X042563Y046000D01*
X042552Y046081D01*
X042521Y046156D01*
X042471Y046221D01*
X042406Y046271D01*
X042331Y046302D01*
X042250Y046313D01*
X042250Y046313D02*
G37*
G36*
X032250Y046313D02*
X032169Y046302D01*
X032094Y046271D01*
X032029Y046221D01*
X031979Y046156D01*
X031948Y046081D01*
X031937Y046000D01*
X031937Y043550D01*
X031948Y043469D01*
X031979Y043394D01*
X032029Y043329D01*
X032094Y043279D01*
X032169Y043248D01*
X032250Y043237D01*
X032331Y043248D01*
X032406Y043279D01*
X032471Y043329D01*
X032521Y043394D01*
X032552Y043469D01*
X032563Y043550D01*
X032563Y046000D01*
X032552Y046081D01*
X032521Y046156D01*
X032471Y046221D01*
X032406Y046271D01*
X032331Y046302D01*
X032250Y046313D01*
X032250Y046313D02*
G37*
G36*
X031250Y043863D02*
X031169Y043852D01*
X031094Y043821D01*
X031029Y043771D01*
X030979Y043706D01*
X030948Y043631D01*
X030937Y043550D01*
X030948Y043469D01*
X030979Y043394D01*
X031029Y043329D01*
X031094Y043279D01*
X031169Y043248D01*
X031250Y043237D01*
X031331Y043248D01*
X031406Y043279D01*
X031471Y043329D01*
X031521Y043394D01*
X031552Y043469D01*
X031563Y043550D01*
X031552Y043631D01*
X031521Y043706D01*
X031471Y043771D01*
X031406Y043821D01*
X031331Y043852D01*
X031250Y043863D01*
X031250Y043863D02*
G37*
G36*
X036250Y043863D02*
X036169Y043852D01*
X036094Y043821D01*
X036029Y043771D01*
X035979Y043706D01*
X035948Y043631D01*
X035937Y043550D01*
X035948Y043469D01*
X035979Y043394D01*
X036029Y043329D01*
X036094Y043279D01*
X036169Y043248D01*
X036250Y043237D01*
X036331Y043248D01*
X036406Y043279D01*
X036471Y043329D01*
X036521Y043394D01*
X036552Y043469D01*
X036563Y043550D01*
X036552Y043631D01*
X036521Y043706D01*
X036471Y043771D01*
X036406Y043821D01*
X036331Y043852D01*
X036250Y043863D01*
X036250Y043863D02*
G37*
G36*
X046250Y043863D02*
X046169Y043852D01*
X046094Y043821D01*
X046029Y043771D01*
X045979Y043706D01*
X045948Y043631D01*
X045937Y043550D01*
X045948Y043469D01*
X045979Y043394D01*
X046029Y043329D01*
X046094Y043279D01*
X046169Y043248D01*
X046250Y043237D01*
X046331Y043248D01*
X046406Y043279D01*
X046471Y043329D01*
X046521Y043394D01*
X046552Y043469D01*
X046563Y043550D01*
X046552Y043631D01*
X046521Y043706D01*
X046471Y043771D01*
X046406Y043821D01*
X046331Y043852D01*
X046250Y043863D01*
X046250Y043863D02*
G37*
G36*
X037250Y046313D02*
X037169Y046302D01*
X037094Y046271D01*
X037029Y046221D01*
X036979Y046156D01*
X036948Y046081D01*
X036937Y046000D01*
X036937Y043550D01*
X036948Y043469D01*
X036979Y043394D01*
X037029Y043329D01*
X037094Y043279D01*
X037169Y043248D01*
X037250Y043237D01*
X037331Y043248D01*
X037406Y043279D01*
X037471Y043329D01*
X037521Y043394D01*
X037552Y043469D01*
X037563Y043550D01*
X037563Y046000D01*
X037552Y046081D01*
X037521Y046156D01*
X037471Y046221D01*
X037406Y046271D01*
X037331Y046302D01*
X037250Y046313D01*
X037250Y046313D02*
G37*
G36*
X052250Y046313D02*
X052169Y046302D01*
X052094Y046271D01*
X052029Y046221D01*
X051979Y046156D01*
X051948Y046081D01*
X051937Y046000D01*
X051937Y043500D01*
X051948Y043419D01*
X051979Y043344D01*
X052029Y043279D01*
X052094Y043229D01*
X052169Y043198D01*
X052250Y043187D01*
X052331Y043198D01*
X052406Y043229D01*
X052471Y043279D01*
X052521Y043344D01*
X052552Y043419D01*
X052563Y043500D01*
X052563Y046000D01*
X052552Y046081D01*
X052521Y046156D01*
X052471Y046221D01*
X052406Y046271D01*
X052331Y046302D01*
X052250Y046313D01*
X052250Y046313D02*
G37*
G36*
X051250Y043813D02*
X051169Y043802D01*
X051094Y043771D01*
X051029Y043721D01*
X050979Y043656D01*
X050948Y043581D01*
X050937Y043500D01*
X050948Y043419D01*
X050979Y043344D01*
X051029Y043279D01*
X051094Y043229D01*
X051169Y043198D01*
X051250Y043187D01*
X051331Y043198D01*
X051406Y043229D01*
X051471Y043279D01*
X051521Y043344D01*
X051552Y043419D01*
X051563Y043500D01*
X051552Y043581D01*
X051521Y043656D01*
X051471Y043721D01*
X051406Y043771D01*
X051331Y043802D01*
X051250Y043813D01*
X051250Y043813D02*
G37*
G36*
X030500Y043865D02*
X030000Y043865D01*
X029954Y043846D01*
X029935Y043800D01*
X029935Y043300D01*
X029954Y043254D01*
X030000Y043235D01*
X030500Y043235D01*
X030546Y043254D01*
X030565Y043300D01*
X030565Y043800D01*
X030546Y043846D01*
X030500Y043865D01*
X030500Y043865D02*
G37*
G36*
X045500Y043865D02*
X045000Y043865D01*
X044954Y043846D01*
X044935Y043800D01*
X044935Y043300D01*
X044954Y043254D01*
X045000Y043235D01*
X045500Y043235D01*
X045546Y043254D01*
X045565Y043300D01*
X045565Y043800D01*
X045546Y043846D01*
X045500Y043865D01*
X045500Y043865D02*
G37*
G36*
X035500Y043865D02*
X035000Y043865D01*
X034954Y043846D01*
X034935Y043800D01*
X034935Y043300D01*
X034954Y043254D01*
X035000Y043235D01*
X035500Y043235D01*
X035546Y043254D01*
X035565Y043300D01*
X035565Y043800D01*
X035546Y043846D01*
X035500Y043865D01*
X035500Y043865D02*
G37*
%LPD*%
D11*
X024850Y028900D02*
X026500Y028900D01*
X022000Y031750D02*
X024850Y028900D01*
X022000Y031750D02*
X022000Y043000D01*
X019000Y046000D02*
X022000Y043000D01*
X013600Y046000D02*
X019000Y046000D01*
X022750Y036000D02*
X023500Y035250D01*
X023500Y031250D02*
X023500Y035250D01*
X023500Y031250D02*
X024000Y030750D01*
X025250Y030000D02*
X025250Y031750D01*
X024500Y032500D02*
X025250Y031750D01*
X024500Y032500D02*
X024500Y035250D01*
X022750Y037000D02*
X024500Y035250D01*
X023750Y037250D02*
X025250Y037250D01*
X023000Y038000D02*
X023750Y037250D01*
X022750Y038000D02*
X023000Y038000D01*
X023900Y037850D02*
X024000Y037850D01*
X022750Y039000D02*
X023900Y037850D01*
X023550Y041500D02*
X025250Y041500D01*
X023050Y042000D02*
X023550Y041500D01*
X022750Y042000D02*
X023050Y042000D01*
X025500Y044000D02*
X026500Y045000D01*
X022750Y044000D02*
X025500Y044000D01*
X023750Y042000D02*
X024000Y042000D01*
X022750Y043000D02*
X023750Y042000D01*
X024750Y045000D02*
X025250Y045500D01*
X022750Y045000D02*
X024750Y045000D01*
X022750Y046000D02*
X024000Y046000D01*
D12*
X052250Y043500D02*
X052250Y046000D01*
X047250Y043550D02*
X047250Y046000D01*
X042250Y043500D02*
X042250Y046000D01*
X037250Y043550D02*
X037250Y046000D01*
X032250Y043550D02*
X032250Y046000D01*
X050250Y024500D02*
X050250Y026950D01*
X045250Y024500D02*
X045250Y026950D01*
X040250Y024500D02*
X040250Y026950D01*
X035250Y024500D02*
X035250Y026950D01*
X030250Y024500D02*
X030250Y026950D01*
D13*
X014000Y029450D02*
D03*
X014000Y030500D02*
D03*
X022750Y029300D02*
D03*
X022750Y028250D02*
D03*
X052100Y024500D02*
D03*
X050250Y024500D02*
D03*
X020000Y024500D02*
D03*
X018150Y024500D02*
D03*
X050400Y046000D02*
D03*
X052250Y046000D02*
D03*
X051250Y043500D02*
D03*
X052250Y043500D02*
D03*
X026500Y032000D02*
D03*
X026500Y028900D02*
D03*
X025250Y033100D02*
D03*
X025250Y030000D02*
D03*
X024000Y034750D02*
D03*
X024000Y037850D02*
D03*
X024000Y038900D02*
D03*
X024000Y042000D02*
D03*
X025250Y042400D02*
D03*
X025250Y045500D02*
D03*
X024000Y033850D02*
D03*
X024000Y030750D02*
D03*
X025250Y034150D02*
D03*
X025250Y037250D02*
D03*
X025250Y038400D02*
D03*
X025250Y041500D02*
D03*
X026500Y041900D02*
D03*
X026500Y045000D02*
D03*
X024000Y042900D02*
D03*
X024000Y046000D02*
D03*
X015750Y028350D02*
D03*
X015750Y025250D02*
D03*
X030400Y046000D02*
D03*
X032250Y046000D02*
D03*
X014250Y028550D02*
D03*
X014250Y025250D02*
D03*
X025250Y027000D02*
D03*
X021950Y027000D02*
D03*
X050250Y026950D02*
D03*
X051250Y026950D02*
D03*
X045250Y026950D02*
D03*
X046250Y026950D02*
D03*
X040250Y026950D02*
D03*
X041250Y026950D02*
D03*
X030250Y026950D02*
D03*
X031250Y026950D02*
D03*
X035250Y026950D02*
D03*
X036250Y026950D02*
D03*
X037250Y043550D02*
D03*
X036250Y043550D02*
D03*
X032250Y043550D02*
D03*
X031250Y043550D02*
D03*
X042250Y043500D02*
D03*
X041250Y043500D02*
D03*
X047250Y043550D02*
D03*
X046250Y043550D02*
D03*
X047100Y024500D02*
D03*
X045250Y024500D02*
D03*
X042100Y024500D02*
D03*
X040250Y024500D02*
D03*
X032100Y024500D02*
D03*
X030250Y024500D02*
D03*
X037100Y024500D02*
D03*
X035250Y024500D02*
D03*
X035400Y046000D02*
D03*
X037250Y046000D02*
D03*
X040400Y046000D02*
D03*
X042250Y046000D02*
D03*
X045400Y046000D02*
D03*
X047250Y046000D02*
D03*
D14*
X050250Y043500D02*
D03*
X052250Y026950D02*
D03*
X047250Y026950D02*
D03*
X042250Y026950D02*
D03*
X032250Y026950D02*
D03*
X037250Y026950D02*
D03*
X035250Y043550D02*
D03*
X030250Y043550D02*
D03*
X040250Y043500D02*
D03*
X045250Y043550D02*
D03*
D15*
X013600Y046000D02*
D03*
D16*
X013600Y045000D02*
D03*
X013600Y044000D02*
D03*
X013600Y043000D02*
D03*
X013600Y042000D02*
D03*
X013600Y041000D02*
D03*
X013600Y040000D02*
D03*
X013600Y039000D02*
D03*
X013600Y038000D02*
D03*
X013600Y037000D02*
D03*
X013600Y036000D02*
D03*
X013600Y035000D02*
D03*
X013600Y034000D02*
D03*
X013600Y033000D02*
D03*
X013600Y032000D02*
D03*
X022750Y046000D02*
D03*
X022750Y045000D02*
D03*
X022750Y044000D02*
D03*
X022750Y043000D02*
D03*
X022750Y042000D02*
D03*
X022750Y041000D02*
D03*
X022750Y040000D02*
D03*
X022750Y039000D02*
D03*
X022750Y038000D02*
D03*
X022750Y037000D02*
D03*
X022750Y036000D02*
D03*
X022750Y035000D02*
D03*
X022750Y034000D02*
D03*
X022750Y033000D02*
D03*
X022750Y032000D02*
D03*
D17*
X020500Y027516D02*
D03*
X020500Y028500D02*
D03*
X020500Y029484D02*
D03*
X020500Y030468D02*
D03*
X017248Y027516D02*
D03*
X017248Y028500D02*
D03*
X017248Y029484D02*
D03*
D18*
X017248Y030468D02*
D03*
M02*
